<svg width="20" height="20" viewBox="0 0 20 20" fill="none" xmlns="http://www.w3.org/2000/svg">
<path fill-rule="evenodd" clip-rule="evenodd" d="M11.6667 4.58329C11.6667 2.97246 12.9725 1.66663 14.5833 1.66663C16.1942 1.66663 17.5 2.97246 17.5 4.58329C17.5 6.19411 16.1942 7.49996 14.5833 7.49996C13.769 7.49996 13.0327 7.16626 12.5036 6.62816L8.22756 9.21884C8.29649 9.46745 8.33333 9.7294 8.33333 9.99996C8.33333 10.243 8.3036 10.4791 8.24758 10.7049L12.6009 13.2773C13.1212 12.7949 13.8178 12.5 14.5833 12.5C16.1942 12.5 17.5 13.8058 17.5 15.4166C17.5 17.0274 16.1942 18.3333 14.5833 18.3333C12.9725 18.3333 11.6667 17.0274 11.6667 15.4166C11.6667 15.1736 11.6964 14.9375 11.7524 14.7118L7.39908 12.1394C6.87875 12.6217 6.18214 12.9166 5.41667 12.9166C3.80585 12.9166 2.5 11.6108 2.5 9.99996C2.5 8.38914 3.80585 7.08329 5.41667 7.08329C6.15373 7.08329 6.82695 7.3567 7.34042 7.80763L11.7222 5.15284C11.6858 4.96864 11.6667 4.7782 11.6667 4.58329ZM14.5833 3.33329C13.893 3.33329 13.3333 3.89294 13.3333 4.58329C13.3333 5.27364 13.893 5.83329 14.5833 5.83329C15.2737 5.83329 15.8333 5.27364 15.8333 4.58329C15.8333 3.89294 15.2737 3.33329 14.5833 3.33329ZM5.41667 8.74996C4.72632 8.74996 4.16667 9.30961 4.16667 9.99996C4.16667 10.6903 4.72632 11.25 5.41667 11.25C6.10701 11.25 6.66667 10.6903 6.66667 9.99996C6.66667 9.30961 6.10701 8.74996 5.41667 8.74996ZM14.5833 14.1666C13.893 14.1666 13.3333 14.7263 13.3333 15.4166C13.3333 16.107 13.893 16.6666 14.5833 16.6666C15.2737 16.6666 15.8333 16.107 15.8333 15.4166C15.8333 14.7263 15.2737 14.1666 14.5833 14.1666Z" fill="#C9C9C9"/>
</svg>
