<svg width="24.000000000000004" height="24.000000000000004" xmlns="http://www.w3.org/2000/svg">

 <g>
  <title>background</title>
  <rect fill="none" id="canvas_background" height="402" width="582" y="-1" x="-1"/>
 </g>
 <g>
  <title>Layer 1</title>
  <path id="svg_1" fill="#2500f7" d="m13.0044,3.5c0,-0.55228 -0.4477,-1 -1,-1c-0.5523,0 -1,0.44772 -1,1l0,2.04989c-0.9596,0.0962 -1.87592,0.32742 -2.73035,0.65783l-0.82945,-1.15735c-0.32171,-0.44891 -0.94643,-0.55201 -1.39533,-0.2303c-0.44891,0.32172 -0.55201,0.94644 -0.23029,1.39534l0.63894,0.89154c-0.5309,0.32483 -1.02392,0.68576 -1.47253,1.07013c-1.73748,1.48872 -2.98539,3.49132 -2.98539,5.32292c0,1.8316 1.24791,3.8342 2.98539,5.3229c1.77683,1.5224 4.25047,2.6771 7.01461,2.6771c2.7639,0 5.2376,-1.1538 7.0145,-2.6759c1.7377,-1.4886 2.9855,-3.4911 2.9855,-5.3241c0,-1.833 -1.2478,-3.83556 -2.9855,-5.32409c-0.3297,-0.28245 -0.6835,-0.55223 -1.0586,-0.8043l0.6694,-0.93402c0.3217,-0.4489 0.2187,-1.07361 -0.2302,-1.39534c-0.4489,-0.32172 -1.0737,-0.21863 -1.3954,0.23027l-0.8079,1.12723c-0.9816,-0.43182 -2.0542,-0.73447 -3.1874,-0.849l0,-2.05075zm-1.0044,6c-2.20914,0 -4,1.7909 -4,4c0,2.2091 1.79086,4 4,4c2.2091,0 4,-1.7909 4,-4c0,-2.2091 -1.7909,-4 -4,-4z" clip-rule="evenodd" fill-rule="evenodd"/>
 </g>
</svg>