<svg width="12" height="16" viewBox="0 0 12 16" fill="none" xmlns="http://www.w3.org/2000/svg">
<path d="M5.99998 0C2.80482 0 0.205383 2.59944 0.205383 5.79456C0.205383 9.75981 5.39098 15.581 5.61176 15.8269C5.81913 16.0579 6.1812 16.0575 6.3882 15.8269C6.60898 15.581 11.7946 9.75981 11.7946 5.79456C11.7945 2.59944 9.1951 0 5.99998 0ZM5.99998 8.70997C4.39241 8.70997 3.0846 7.40213 3.0846 5.79456C3.0846 4.187 4.39245 2.87919 5.99998 2.87919C7.60751 2.87919 8.91532 4.18703 8.91532 5.79459C8.91532 7.40216 7.60751 8.70997 5.99998 8.70997Z" fill="#303030"/>
</svg>
