<svg width="16" height="16" viewBox="0 0 16 16" fill="none" xmlns="http://www.w3.org/2000/svg">
<path d="M15.5645 11.7424L13.3317 9.50954C12.5342 8.71209 11.1786 9.0311 10.8596 10.0678C10.6203 10.7855 9.8229 11.1842 9.1052 11.0247C7.51031 10.626 5.3572 8.5526 4.95848 6.87797C4.71925 6.16024 5.19771 5.36279 5.91542 5.12359C6.9521 4.80461 7.27107 3.44895 6.47363 2.65151L4.24078 0.418659C3.60282 -0.139553 2.64589 -0.139553 2.08768 0.418659L0.57253 1.93381C-0.942617 3.5287 0.732019 7.75516 4.48001 11.5032C8.22801 15.2511 12.4545 17.0056 14.0494 15.4106L15.5645 13.8955C16.1228 13.2575 16.1228 12.3006 15.5645 11.7424Z" fill="#303030"/>
</svg>
